<?xml version="1.0" standalone="no"?>
<!DOCTYPE svg PUBLIC "-//W3C//DTD SVG 20010904//EN"
 "http://www.w3.org/TR/2001/REC-SVG-20010904/DTD/svg10.dtd">
<svg version="1.0" xmlns="http://www.w3.org/2000/svg"
 width="2450.000000pt" height="1873.000000pt" viewBox="0 0 2450.000000 1873.000000"
 preserveAspectRatio="xMidYMid meet">

<g transform="translate(0.000000,1873.000000) scale(0.100000,-0.100000)"
fill="#000000" stroke="none">
<path d="M11525 16244 c-104 -8 -244 -21 -310 -29 -66 -8 -145 -17 -175 -20
-30 -4 -68 -10 -85 -15 -16 -5 -68 -14 -115 -20 -114 -13 -375 -63 -410 -78
-8 -3 -44 -11 -80 -18 -36 -7 -132 -31 -215 -53 -82 -22 -170 -45 -195 -52
-25 -6 -74 -22 -110 -34 -36 -13 -85 -29 -110 -36 -25 -7 -50 -16 -55 -20 -6
-5 -30 -11 -53 -15 -23 -4 -42 -10 -42 -14 0 -4 -28 -15 -62 -25 -35 -10 -80
-27 -100 -37 -21 -10 -44 -18 -52 -18 -9 0 -39 -11 -68 -24 -29 -13 -64 -27
-77 -31 -13 -4 -63 -25 -110 -47 -47 -22 -106 -49 -131 -60 -116 -52 -233
-107 -325 -154 -55 -29 -138 -72 -185 -95 -47 -24 -87 -47 -90 -51 -3 -4 -27
-17 -53 -28 -26 -12 -47 -25 -47 -30 0 -6 -5 -10 -11 -10 -9 0 -37 -16 -185
-105 -40 -24 -387 -257 -394 -265 -3 -3 -27 -21 -55 -39 -27 -19 -54 -41 -58
-48 -4 -7 -13 -13 -20 -13 -7 0 -29 -16 -50 -35 -21 -19 -51 -42 -68 -50 -16
-9 -29 -19 -29 -24 0 -4 -21 -23 -47 -41 -27 -18 -68 -52 -93 -74 -25 -23 -67
-59 -94 -81 -27 -22 -79 -68 -115 -103 -36 -35 -84 -80 -106 -99 -49 -44 -225
-214 -225 -217 0 -1 -33 -36 -72 -78 -105 -108 -228 -243 -246 -270 -9 -13
-22 -29 -30 -37 -7 -8 -39 -46 -70 -85 -31 -39 -67 -80 -79 -91 -13 -11 -23
-24 -23 -28 0 -6 -83 -117 -185 -247 -19 -25 -35 -50 -35 -56 0 -7 -7 -14 -15
-18 -8 -3 -15 -10 -15 -17 0 -6 -20 -36 -45 -68 -25 -31 -45 -60 -45 -63 0 -8
-101 -161 -110 -168 -4 -3 -16 -20 -26 -39 -42 -76 -82 -146 -148 -256 -37
-64 -107 -193 -154 -288 -47 -95 -89 -173 -94 -175 -17 -8 -7 -63 21 -104 15
-24 50 -77 76 -118 27 -41 61 -91 77 -110 15 -19 28 -39 28 -44 0 -5 11 -24
25 -42 14 -18 25 -36 25 -40 0 -8 53 -80 158 -217 35 -45 70 -94 78 -109 8
-16 18 -28 23 -28 4 0 19 -15 32 -33 38 -54 90 -115 151 -182 32 -34 70 -77
85 -96 16 -19 37 -44 48 -56 11 -11 74 -78 140 -148 66 -71 127 -135 135 -142
8 -8 89 -86 180 -174 91 -87 168 -159 172 -159 9 0 55 -38 77 -63 19 -22 249
-210 273 -223 9 -5 34 -24 55 -41 77 -65 131 -108 152 -123 13 -8 44 -31 70
-50 27 -19 58 -42 71 -50 12 -8 33 -23 45 -32 24 -19 45 -23 45 -10 0 4 11 59
24 122 34 161 99 374 166 540 12 30 26 69 31 85 9 32 26 71 40 95 13 22 52
106 85 183 16 37 32 67 36 67 5 0 8 7 8 15 0 8 11 31 25 51 14 20 25 42 25 49
0 7 7 18 15 25 9 7 23 29 32 49 9 20 23 40 30 44 7 4 13 13 13 18 0 6 26 49
58 96 31 47 74 111 94 142 20 31 46 68 57 83 12 14 21 31 21 37 0 5 6 14 14
18 8 4 45 46 82 93 36 47 81 101 99 120 18 19 55 59 82 89 26 30 89 94 138
142 98 95 113 109 200 184 32 28 71 62 87 78 16 15 32 27 36 27 5 0 23 16 42
35 19 19 39 35 43 35 7 0 109 69 255 170 23 17 45 30 48 30 3 0 35 19 72 43
37 24 87 54 112 67 25 12 52 26 60 31 21 12 128 68 171 90 19 10 82 36 140 59
57 23 111 48 119 54 8 7 47 22 85 34 87 26 135 42 158 53 9 5 45 16 80 25 34
8 80 20 102 25 21 6 44 14 50 18 5 5 26 11 45 14 19 3 89 18 155 32 150 32
285 54 395 65 47 5 123 13 170 19 47 6 157 12 245 14 88 2 238 10 332 18 154
11 202 11 430 -5 142 -10 278 -22 303 -27 25 -5 79 -14 120 -19 103 -13 187
-29 240 -46 71 -22 212 -54 236 -54 12 0 29 -7 38 -15 8 -8 22 -15 31 -15 21
0 212 -58 245 -75 14 -7 52 -22 85 -35 33 -12 98 -39 145 -60 47 -21 110 -48
140 -61 30 -12 66 -30 80 -39 14 -9 59 -34 100 -54 96 -49 124 -67 333 -205
206 -137 274 -187 441 -334 80 -70 386 -373 386 -383 0 -5 30 -40 65 -79 36
-38 65 -72 65 -75 0 -4 14 -22 31 -41 17 -19 47 -59 68 -89 20 -30 57 -84 81
-120 24 -36 51 -74 61 -85 10 -11 30 -43 45 -70 14 -28 29 -52 33 -55 7 -5 21
-31 90 -165 20 -38 39 -72 42 -75 8 -7 71 -140 99 -210 12 -30 28 -62 34 -70
7 -8 18 -34 25 -57 6 -24 17 -43 24 -43 7 0 41 14 75 30 35 17 68 30 74 30 5
0 33 11 61 24 96 44 224 96 236 96 11 0 20 4 79 33 19 9 42 17 52 17 9 0 23 7
30 15 6 8 22 17 33 20 24 7 141 55 222 91 44 19 96 40 310 126 28 11 54 24 60
29 5 5 15 9 23 9 7 0 32 9 55 19 57 26 102 45 232 97 61 25 124 51 140 58 17
8 44 19 60 26 17 7 53 23 80 36 89 41 123 54 142 54 10 0 29 9 43 20 14 11 32
20 41 20 22 0 86 27 94 40 3 5 15 10 26 10 11 0 52 15 92 34 40 18 113 50 162
70 50 21 106 44 125 53 19 8 63 26 98 39 34 13 77 30 95 38 17 8 57 25 87 36
72 28 120 58 120 76 0 7 -8 28 -18 46 -11 18 -24 49 -31 69 -6 20 -27 68 -46
105 -19 38 -35 75 -35 83 0 8 -6 22 -14 30 -7 9 -21 39 -31 66 -10 28 -22 55
-26 60 -9 12 -50 90 -133 250 -34 66 -79 144 -99 172 -20 29 -37 57 -37 63 0
17 -51 110 -60 110 -5 0 -14 15 -20 34 -6 19 -14 36 -18 38 -6 3 -27 32 -78
113 -10 17 -23 37 -29 46 -5 8 -21 32 -33 52 -13 20 -27 37 -31 37 -5 0 -16
18 -26 40 -10 22 -21 40 -26 40 -4 0 -21 24 -37 53 -16 28 -38 61 -48 72 -29
31 -87 106 -114 147 -14 21 -28 38 -32 38 -3 0 -16 17 -28 37 -12 21 -31 43
-41 51 -10 7 -19 19 -19 27 0 8 -6 18 -12 22 -7 4 -34 34 -61 67 -47 58 -123
145 -191 220 -20 21 -36 42 -36 46 0 4 -9 10 -19 13 -11 2 -30 22 -44 43 -13
22 -36 50 -51 64 -15 14 -73 70 -130 125 -185 181 -381 361 -424 391 -12 8
-33 25 -46 37 -30 29 -72 63 -176 142 -47 36 -94 72 -105 81 -85 65 -141 106
-187 135 -29 19 -61 42 -70 52 -10 9 -22 17 -26 17 -5 0 -20 9 -32 20 -21 18
-78 54 -151 96 -10 6 -27 18 -37 27 -10 10 -22 17 -26 17 -4 0 -16 9 -28 20
-12 11 -28 20 -35 20 -7 0 -13 5 -13 10 0 6 -5 10 -11 10 -10 0 -80 40 -154
88 -11 7 -32 17 -47 23 -16 6 -28 15 -28 19 0 4 -12 11 -27 15 -16 3 -56 24
-91 46 -77 47 -364 189 -385 189 -8 0 -20 7 -27 15 -7 8 -19 15 -26 15 -8 0
-44 15 -82 34 -37 19 -103 49 -147 66 -44 18 -95 38 -113 46 -18 8 -61 23 -95
35 -34 11 -66 25 -71 30 -6 5 -19 9 -31 9 -12 0 -25 4 -31 8 -12 12 -219 82
-239 82 -9 0 -37 10 -63 22 -26 11 -60 24 -77 29 -16 4 -73 19 -125 34 -52 15
-117 31 -145 37 -27 6 -72 17 -100 26 -59 18 -104 28 -200 46 -142 27 -241 47
-283 56 -23 6 -55 10 -70 10 -15 0 -58 7 -97 15 -38 9 -95 18 -125 21 -30 3
-88 10 -128 15 -41 6 -171 19 -290 29 -270 22 -883 24 -1167 4z m3745 -1154
c134 -30 207 -61 323 -139 118 -80 148 -112 129 -140 -7 -9 -16 -26 -22 -39
-5 -12 -20 -26 -32 -31 -13 -5 -44 -32 -71 -60 -75 -80 -97 -87 -146 -43 -41
36 -120 75 -206 103 -136 43 -338 25 -463 -43 -70 -38 -152 -105 -152 -124 0
-7 -9 -18 -19 -23 -20 -11 -85 -135 -97 -186 -4 -16 -11 -36 -17 -43 -5 -7
-10 -61 -11 -120 -2 -161 37 -298 108 -387 18 -22 35 -48 39 -57 3 -9 19 -25
34 -35 15 -10 30 -20 33 -23 12 -15 112 -70 125 -70 8 0 38 -9 67 -20 42 -16
77 -20 168 -20 132 0 236 24 308 72 24 15 47 28 52 28 5 0 25 14 43 30 61 53
63 51 221 -114 63 -67 71 -100 33 -132 -73 -62 -111 -87 -207 -135 -126 -63
-257 -89 -437 -88 -133 0 -157 3 -287 29 -75 15 -204 72 -281 123 -112 75
-246 234 -284 337 -7 19 -22 55 -33 79 -38 86 -52 177 -52 351 -1 210 16 282
111 475 13 28 32 62 41 76 44 66 68 99 73 99 4 0 34 26 66 58 53 51 94 80 208
141 49 27 155 60 230 71 38 6 71 13 74 16 13 13 253 2 331 -16z m-5857 -7 c16
-4 29 -28 97 -178 5 -11 21 -47 35 -80 15 -33 38 -85 52 -115 14 -30 31 -68
38 -85 7 -16 32 -70 55 -120 23 -49 54 -119 68 -155 14 -36 31 -74 38 -85 7
-11 27 -56 44 -100 18 -44 48 -114 68 -155 19 -41 41 -88 48 -105 7 -16 32
-69 54 -117 22 -48 40 -90 40 -95 0 -4 15 -39 34 -78 103 -214 128 -278 117
-301 -10 -22 -13 -23 -186 -23 l-176 1 -54 113 c-30 62 -55 119 -55 127 0 8
-7 23 -15 34 -8 10 -15 26 -15 35 0 9 -10 19 -23 23 -17 4 -724 9 -880 6 -13
0 -32 -29 -68 -107 -86 -187 -94 -202 -109 -209 -8 -4 -85 -8 -170 -9 -196 -2
-231 13 -180 78 11 14 20 32 20 40 0 8 27 68 60 133 33 65 60 123 60 128 0 8
27 67 85 191 13 28 49 109 81 180 31 72 81 182 111 245 30 63 61 129 68 145 7
17 20 46 29 65 64 143 77 174 82 196 3 13 9 24 13 24 4 0 15 19 25 43 25 61
86 196 107 238 11 20 19 43 19 51 0 32 41 38 205 32 88 -3 168 -8 178 -11z
m1255 5 c9 -9 12 -219 12 -884 0 -798 -1 -874 -17 -889 -14 -15 -32 -16 -143
-10 -87 5 -133 4 -148 -4 -17 -9 -23 -7 -36 11 -14 20 -16 118 -16 883 0 757
2 864 16 883 14 21 22 22 168 22 105 0 156 -4 164 -12z m1624 -14 c12 -7 10
-322 -2 -329 -5 -3 -227 -7 -492 -8 l-483 -2 -3 -179 c-1 -99 1 -183 5 -187 5
-4 215 -11 468 -15 279 -4 465 -10 473 -17 18 -15 17 -276 -2 -303 -14 -18
-31 -19 -478 -19 l-463 0 0 -180 0 -180 479 -3 c344 -1 483 -5 493 -14 11 -9
14 -44 12 -162 -1 -83 -6 -158 -10 -167 -8 -16 -66 -17 -668 -18 -610 -1 -659
1 -665 16 -4 9 -6 404 -6 878 2 753 4 863 17 884 l15 24 651 -7 c358 -4 655
-10 659 -12z m1710 -7 c9 -14 11 -241 2 -286 l-6 -31 -269 0 c-194 0 -270 -3
-275 -12 -4 -6 -9 -329 -11 -717 -4 -606 -6 -708 -19 -717 -9 -7 -70 -12 -164
-13 -121 0 -152 2 -164 14 -13 14 -14 100 -9 724 5 536 3 710 -6 715 -6 4
-127 10 -269 13 -145 3 -262 10 -269 16 -9 7 -13 50 -13 151 0 100 4 146 13
155 17 19 1447 7 1459 -12z"/>
<path d="M9175 14538 c-26 -62 -63 -148 -81 -192 -17 -43 -37 -83 -43 -89 -6
-6 -11 -16 -11 -22 0 -6 -5 -22 -11 -36 -6 -13 -30 -67 -54 -119 -23 -52 -41
-98 -38 -102 2 -5 137 -8 299 -8 314 0 311 0 284 48 -16 28 -70 152 -70 160 0
4 -13 34 -29 67 -47 97 -144 326 -165 388 -12 38 -34 12 -81 -95z"/>
<path d="M9670 11654 c-91 -7 -194 -18 -230 -24 -36 -6 -96 -15 -135 -20 -38
-5 -102 -16 -141 -24 -39 -9 -80 -17 -90 -19 -11 -2 -39 -9 -64 -16 -412 -116
-563 -294 -443 -526 35 -68 270 -275 312 -275 6 0 14 -6 18 -12 9 -14 25 -23
203 -116 68 -35 152 -75 187 -88 35 -13 71 -28 80 -34 10 -5 47 -21 83 -36 36
-14 83 -34 105 -44 58 -25 239 -92 395 -146 74 -25 144 -50 155 -55 51 -23
171 -57 177 -50 9 8 12 1477 3 1491 -9 14 -414 10 -615 -6z"/>
<path d="M22025 10750 c-463 -171 -1040 -383 -1630 -598 -121 -45 -303 -110
-405 -147 -216 -77 -476 -172 -505 -185 -11 -5 -42 -16 -70 -25 -27 -10 -69
-26 -92 -36 -24 -11 -51 -19 -60 -19 -10 0 -29 -6 -43 -13 -14 -7 -77 -30
-140 -51 -63 -21 -131 -44 -150 -51 -128 -46 -252 -88 -365 -124 -71 -23 -138
-47 -149 -53 -19 -10 -150 -55 -461 -159 -99 -33 -184 -64 -190 -68 -5 -5 -27
-14 -47 -20 -20 -7 -40 -20 -43 -30 -3 -10 -19 -31 -35 -47 -16 -16 -30 -33
-30 -37 0 -9 -38 -63 -61 -87 -9 -9 -32 -42 -53 -72 -20 -31 -43 -62 -51 -68
-8 -7 -15 -17 -15 -22 0 -5 -9 -19 -20 -31 -10 -12 -33 -37 -50 -56 -16 -19
-30 -38 -30 -43 0 -5 -19 -33 -42 -63 -24 -29 -59 -76 -78 -104 -19 -28 -46
-63 -59 -78 -13 -15 -39 -50 -56 -78 -18 -27 -44 -61 -59 -74 -14 -13 -23 -27
-21 -32 3 -4 -3 -14 -12 -21 -18 -13 -27 -25 -102 -135 -23 -33 -49 -69 -59
-79 -9 -11 -33 -42 -52 -69 -19 -28 -40 -57 -47 -65 -71 -89 -135 -174 -163
-215 -18 -27 -70 -97 -114 -155 -45 -58 -94 -125 -111 -150 -16 -25 -49 -67
-72 -95 -24 -27 -43 -53 -43 -58 0 -5 -19 -32 -42 -61 -24 -29 -50 -63 -58
-76 -8 -12 -25 -34 -38 -48 -12 -15 -35 -45 -49 -67 -15 -22 -40 -53 -55 -69
-16 -17 -28 -33 -28 -38 0 -4 -44 -66 -97 -137 -148 -196 -225 -301 -258 -351
-16 -25 -38 -53 -47 -62 -16 -16 -119 -150 -143 -185 -5 -9 -34 -41 -62 -72
-29 -31 -53 -59 -53 -62 0 -3 -47 -55 -105 -115 -58 -60 -105 -112 -105 -116
0 -5 -4 -8 -10 -8 -5 0 -31 -21 -58 -47 -89 -89 -283 -255 -342 -291 -14 -9
-41 -30 -61 -47 -60 -50 -255 -177 -394 -256 -114 -65 -343 -179 -361 -179 -7
0 -14 -4 -14 -9 0 -5 -17 -15 -37 -22 -21 -6 -43 -16 -50 -21 -6 -5 -49 -22
-95 -38 -46 -16 -108 -39 -138 -50 -30 -12 -71 -26 -90 -30 -19 -4 -66 -19
-105 -32 -38 -14 -115 -35 -170 -47 -55 -12 -107 -26 -116 -31 -9 -5 -34 -11
-55 -15 -57 -9 -198 -33 -289 -49 -99 -18 -274 -32 -545 -42 -149 -6 -537 17
-615 37 -22 5 -101 14 -174 19 -74 6 -139 14 -144 19 -19 19 161 24 553 14
223 -6 414 -7 425 -3 11 5 38 32 60 60 22 29 45 57 50 64 48 54 95 116 95 124
0 6 6 15 14 19 8 4 56 62 107 128 51 66 100 127 109 135 41 39 111 135 108
149 -3 13 -18 16 -73 17 -74 2 -374 -19 -540 -36 -55 -6 -152 -16 -215 -21
-63 -5 -128 -14 -144 -19 -16 -6 -61 -10 -100 -11 -39 0 -80 -4 -91 -8 -31
-12 31 -21 147 -21 189 0 377 -56 436 -130 31 -40 39 -114 18 -177 -17 -52
-112 -180 -149 -200 -27 -14 -1257 -8 -1322 7 -22 6 -69 15 -103 20 -35 6 -76
16 -90 22 -15 5 -38 12 -52 14 -36 7 -61 14 -95 29 -16 8 -70 27 -120 44 -156
53 -178 61 -241 92 -33 16 -64 29 -69 29 -14 0 -114 50 -120 60 -3 6 -15 10
-25 10 -10 0 -25 7 -33 15 -8 7 -26 17 -41 21 -14 3 -26 10 -26 14 0 5 -10 12
-22 16 -13 4 -47 22 -76 40 -29 19 -57 34 -63 34 -5 0 -29 14 -52 31 -23 17
-67 46 -97 65 -75 46 -88 55 -120 82 -15 12 -31 22 -35 22 -8 0 -88 63 -124
97 -13 13 -27 23 -31 23 -5 0 -34 21 -67 47 -148 121 -327 292 -476 458 -98
109 -137 145 -167 152 -35 8 -317 102 -338 112 -45 23 -94 41 -110 41 -10 0
-26 6 -37 14 -11 7 -38 19 -60 26 -22 7 -62 23 -90 35 -27 12 -106 47 -175 78
-69 30 -136 58 -150 62 -14 4 -32 13 -40 20 -8 7 -89 49 -180 95 -91 45 -183
93 -205 106 -22 14 -53 31 -70 40 -53 26 -127 70 -133 80 -4 5 -33 23 -64 39
-67 35 -317 202 -433 289 -44 34 -99 74 -121 89 -23 15 -55 40 -72 55 -17 15
-50 43 -73 62 -24 19 -64 53 -89 75 -26 22 -61 51 -79 65 -43 34 -160 141
-238 218 -35 34 -66 62 -69 62 -7 0 -203 201 -231 237 -14 18 -33 35 -44 38
-10 4 -19 13 -19 22 0 8 -19 34 -43 57 -23 24 -58 62 -77 86 -19 23 -54 63
-77 89 -24 25 -43 49 -43 52 0 4 -11 20 -24 35 -83 97 -146 177 -146 185 0 4
-8 16 -19 26 -19 19 -57 70 -117 161 -19 28 -39 52 -44 52 -29 0 12 -708 60
-1030 5 -36 12 -90 15 -120 10 -98 54 -340 86 -475 10 -45 19 -91 19 -103 0
-12 4 -30 10 -40 5 -9 20 -64 34 -122 14 -58 32 -127 40 -155 8 -27 22 -77 31
-110 66 -233 135 -442 160 -487 8 -14 15 -33 15 -42 0 -8 11 -40 25 -70 14
-30 25 -59 25 -64 0 -10 27 -74 100 -242 88 -199 153 -335 235 -485 30 -55 63
-118 75 -140 11 -22 30 -58 43 -80 13 -22 34 -58 46 -80 45 -78 65 -111 118
-191 29 -44 53 -84 53 -89 0 -4 14 -26 31 -49 34 -46 207 -292 243 -346 13
-19 33 -44 45 -54 11 -11 21 -24 21 -30 0 -5 13 -24 28 -41 16 -16 68 -79 116
-140 111 -139 131 -163 186 -223 25 -26 83 -90 128 -140 92 -101 371 -377 442
-439 25 -21 57 -49 70 -62 14 -12 42 -37 64 -54 21 -18 54 -46 73 -64 19 -17
60 -51 91 -75 78 -59 173 -134 199 -158 12 -11 26 -20 29 -20 4 0 17 -8 28
-19 61 -56 541 -381 562 -381 4 0 29 -16 55 -35 27 -19 54 -35 61 -35 6 0 26
-11 44 -25 18 -14 61 -38 94 -54 33 -16 66 -33 73 -39 12 -10 105 -61 167 -92
156 -79 263 -130 273 -130 6 0 18 -6 26 -13 9 -8 35 -21 58 -30 23 -9 64 -26
90 -38 62 -28 100 -43 143 -59 42 -14 63 -23 110 -43 19 -8 73 -28 120 -45 47
-16 123 -44 170 -60 80 -29 289 -94 410 -129 30 -8 66 -19 80 -24 14 -5 57
-14 95 -20 39 -6 77 -15 86 -20 21 -11 187 -45 259 -54 30 -3 60 -11 66 -16 6
-5 45 -14 85 -20 41 -6 115 -17 164 -24 275 -43 465 -63 650 -70 83 -3 182
-10 220 -15 92 -12 508 -13 572 0 28 5 131 12 229 15 99 4 202 10 229 15 28 5
84 12 125 15 98 8 395 54 500 77 25 5 79 16 120 23 97 17 173 33 235 49 28 8
95 24 150 37 55 13 102 27 105 31 3 4 26 10 50 14 91 13 623 191 775 260 17 7
59 25 95 39 36 14 89 37 118 51 29 13 55 24 59 24 12 0 489 235 510 252 7 5
27 18 45 27 121 65 175 96 220 126 27 19 55 35 61 35 5 0 24 10 41 23 17 13
63 42 101 66 39 24 108 70 155 102 47 33 108 75 135 93 28 19 84 60 126 93 42
32 93 71 115 88 21 16 57 44 78 62 22 18 43 33 47 33 4 0 24 16 46 36 66 62
87 81 109 95 21 14 76 62 179 156 106 98 338 328 427 425 51 55 110 118 131
139 20 20 37 42 37 46 0 5 12 20 26 34 47 44 295 354 374 469 36 53 160 214
184 240 8 8 29 38 48 65 18 28 63 91 101 140 37 50 94 126 126 170 85 117 175
235 205 271 14 18 26 35 26 38 0 4 28 43 63 87 71 94 109 144 134 179 10 14
39 53 65 87 27 34 48 65 48 68 0 5 19 30 66 84 17 20 36 45 42 57 6 12 43 63
82 115 40 52 97 128 128 169 30 41 59 79 64 85 19 22 70 93 105 145 20 30 49
69 64 87 15 17 32 40 38 50 7 13 13 15 18 6 7 -10 440 595 535 748 21 34 102
154 180 268 229 335 603 900 744 1126 335 535 756 1231 1114 1840 81 138 168
285 193 328 26 42 41 77 34 76 -6 0 -241 -85 -522 -189z m-2927 -2622 c31 -31
-4 -113 -51 -122 -47 -10 -115 -95 -108 -136 10 -54 48 -43 143 41 85 75 111
89 173 89 122 0 197 -101 165 -223 -35 -138 -151 -247 -263 -247 -35 0 -49 5
-61 21 -12 18 -12 26 1 66 16 47 17 48 76 58 79 13 148 117 112 171 -25 38
-54 30 -122 -33 -87 -81 -94 -86 -126 -100 -39 -17 -90 -16 -134 2 -40 17 -56
34 -77 81 -16 36 -8 144 13 184 28 52 95 121 135 140 47 22 106 26 124 8z
m-295 -421 c40 -30 86 -66 101 -80 16 -15 34 -27 41 -27 7 0 19 -7 26 -16 8
-9 30 -27 50 -40 21 -13 48 -33 61 -46 13 -13 37 -32 52 -43 25 -18 27 -23 19
-54 -12 -46 -25 -49 -246 -56 -100 -3 -184 -8 -187 -11 -3 -3 4 -12 15 -20 11
-8 27 -20 35 -27 9 -6 36 -29 62 -49 25 -21 51 -38 56 -38 20 0 52 -39 52 -63
0 -38 -31 -87 -56 -87 -19 0 -131 69 -174 106 -49 43 -94 78 -170 128 -99 67
-119 93 -102 130 21 48 45 53 236 60 99 4 182 8 184 11 8 7 -19 35 -33 35 -8
0 -15 3 -17 8 -1 4 -23 20 -48 37 -94 62 -110 78 -110 111 0 34 39 84 65 84 9
0 49 -24 88 -53z m-373 -588 c47 -11 99 -23 115 -28 17 -6 55 -14 85 -20 195
-36 224 -49 213 -92 -3 -11 -18 -33 -34 -50 -22 -24 -35 -30 -52 -25 -70 21
-84 19 -104 -10 -10 -16 -28 -40 -40 -54 -34 -39 -71 -93 -83 -119 -8 -18 -6
-30 10 -57 18 -28 20 -39 11 -70 -11 -41 -37 -74 -58 -74 -7 0 -13 -6 -13 -14
0 -20 -33 -72 -115 -178 -38 -50 -81 -107 -95 -127 -14 -20 -35 -37 -46 -39
-20 -3 -33 6 -172 112 -40 31 -75 56 -78 56 -9 0 -104 75 -104 82 0 4 -5 8
-11 8 -24 0 -79 53 -79 76 0 26 55 118 89 148 11 11 21 25 21 33 0 7 7 16 15
19 8 4 15 11 15 16 0 15 92 128 104 128 24 0 86 -51 86 -71 0 -19 -32 -69 -90
-142 -14 -18 -34 -49 -45 -70 l-20 -39 30 -24 c17 -13 33 -24 36 -24 6 0 68
83 84 112 5 10 13 18 16 18 4 0 19 20 33 45 32 54 64 59 110 19 l30 -26 -25
-46 c-13 -26 -48 -77 -77 -115 -59 -76 -63 -104 -18 -125 31 -14 28 -16 121
112 69 95 71 96 108 93 35 -2 51 13 28 28 -6 3 -16 18 -24 33 -8 15 -33 59
-56 99 -22 40 -41 78 -41 84 0 6 -16 33 -35 60 -43 60 -95 162 -95 187 0 11 9
31 20 45 11 14 20 30 20 35 0 26 71 23 210 -9z m-632 -734 c26 -20 81 -62 122
-93 41 -31 93 -69 115 -84 22 -14 53 -38 69 -52 16 -14 33 -26 37 -26 12 0 39
-30 39 -44 0 -18 -63 -86 -79 -86 -12 0 -31 12 -96 62 -5 4 -24 19 -41 33 -18
14 -35 25 -39 25 -3 0 -27 16 -52 35 -25 19 -49 33 -53 30 -5 -3 5 -40 21 -82
34 -91 38 -152 11 -176 -10 -10 -21 -15 -24 -12 -9 9 -179 12 -184 3 -3 -5 0
-15 6 -23 12 -14 146 -113 196 -145 13 -8 28 -25 35 -37 10 -19 8 -27 -15 -58
-34 -44 -75 -48 -108 -10 -12 14 -25 25 -30 25 -5 0 -34 19 -65 43 -30 23 -63
47 -71 52 -9 6 -22 16 -30 23 -7 6 -16 12 -20 12 -4 0 -26 17 -48 38 -23 20
-58 46 -78 56 -21 11 -39 29 -42 43 -7 25 19 84 45 106 9 7 69 14 155 17 134
5 141 6 138 25 -2 11 -8 23 -14 26 -5 3 -12 25 -14 49 -3 23 -14 59 -25 78
-26 50 -24 80 11 135 37 59 63 61 128 12z m-513 -647 c49 -33 51 -54 7 -103
-69 -78 -125 -153 -128 -169 -3 -18 37 -66 54 -66 6 0 21 15 34 33 12 17 36
47 53 65 16 18 39 50 51 70 29 51 63 62 97 32 33 -28 35 -67 7 -103 -11 -14
-20 -29 -20 -34 0 -4 -14 -23 -30 -42 -17 -18 -30 -37 -30 -41 0 -4 -9 -17
-20 -30 -28 -32 -25 -47 11 -65 32 -17 59 -8 59 21 0 7 9 18 20 24 11 6 20 17
20 25 0 8 6 18 13 22 7 4 30 32 51 61 27 37 44 52 61 52 28 0 85 -45 85 -67 0
-18 -109 -173 -122 -173 -4 0 -8 -6 -8 -13 0 -7 -16 -31 -35 -53 -19 -21 -35
-43 -35 -47 0 -13 -43 -46 -60 -46 -14 -1 -165 105 -278 194 -28 22 -72 56
-99 75 -88 64 -91 53 49 239 18 25 38 49 43 55 25 27 65 86 65 95 0 19 49 12
85 -11z m-259 -427 c22 -20 64 -54 94 -76 92 -70 184 -144 223 -180 42 -39 43
-60 4 -102 -23 -26 -72 -31 -84 -9 -4 8 -31 32 -60 55 -50 39 -83 52 -83 32 0
-8 -24 -40 -95 -126 -14 -16 -25 -33 -25 -38 0 -13 82 -87 96 -87 16 0 42 -32
45 -55 3 -28 -19 -71 -46 -85 -28 -15 -53 -3 -110 52 -22 21 -45 38 -51 38 -5
0 -23 14 -39 30 -16 17 -34 30 -39 30 -6 0 -19 11 -29 24 -10 13 -32 30 -48
36 -16 7 -29 16 -29 21 0 5 -7 9 -16 9 -20 0 -104 -90 -104 -110 1 -8 26 -37
56 -65 91 -84 244 -236 244 -244 0 -16 -63 -91 -76 -91 -8 0 -26 11 -40 25
-14 14 -27 25 -29 25 -2 0 -48 44 -103 98 -54 53 -113 109 -129 125 l-29 27
-63 -55 c-69 -59 -80 -60 -120 -9 -18 23 -19 29 -7 53 8 14 80 92 160 173 80
81 146 154 146 161 0 7 13 28 28 47 28 33 30 33 62 20 18 -8 53 -33 77 -56 60
-59 77 -63 110 -24 118 141 120 145 76 180 -55 42 -123 112 -123 126 0 7 16
29 35 49 41 40 50 39 121 -24z m-9581 -118 c29 -43 32 -94 10 -137 -8 -15 -15
-40 -15 -55 0 -14 -7 -35 -15 -45 -22 -28 -20 -60 3 -51 30 12 204 24 227 15
29 -11 75 -67 75 -90 0 -23 -59 -37 -197 -46 -54 -3 -107 -8 -118 -9 -11 -2
-31 -4 -45 -4 -15 -1 -46 -20 -80 -52 -65 -59 -109 -89 -132 -89 -21 0 -68 56
-68 82 0 22 48 78 66 78 7 0 14 7 18 15 3 8 11 15 17 15 24 0 76 69 88 117 14
56 69 238 82 271 14 36 54 29 84 -15z m335 -456 c70 -17 148 -74 192 -141 32
-49 33 -55 33 -147 0 -71 -4 -101 -15 -114 -8 -10 -22 -32 -30 -50 -20 -42
-76 -89 -136 -116 -68 -29 -191 -29 -253 1 -95 47 -163 150 -168 255 -3 47 3
75 25 130 24 62 35 76 90 117 61 46 131 76 182 77 14 0 50 -5 80 -12z m8465
-205 c18 -12 55 -64 55 -77 0 -19 -57 -81 -118 -126 -65 -48 -92 -76 -92 -93
0 -7 14 -22 30 -35 l30 -22 53 43 c28 24 56 49 60 56 4 6 13 12 18 12 6 0 22
14 36 30 31 38 57 38 94 1 49 -49 44 -58 -104 -181 -27 -22 -52 -40 -57 -40
-18 0 -18 -30 1 -51 10 -12 19 -26 19 -31 0 -19 32 -5 68 30 21 20 52 47 69
59 16 12 42 34 57 48 15 14 38 25 51 25 25 0 75 -51 75 -77 0 -15 -45 -61
-120 -123 -24 -19 -59 -49 -79 -66 -78 -68 -151 -104 -151 -76 0 5 -18 27 -40
50 -22 22 -40 45 -40 52 0 6 -7 13 -15 16 -8 3 -30 30 -50 60 -20 30 -40 54
-44 54 -4 0 -27 27 -51 59 -23 33 -48 62 -55 65 -6 2 -19 20 -29 39 -16 35
-16 36 7 59 13 13 41 36 63 52 21 17 41 33 44 36 3 3 25 21 50 40 25 19 66 53
92 77 49 44 56 48 73 35z m-8075 -134 c45 -33 39 -58 -36 -148 -36 -44 -69
-80 -74 -80 -4 0 -10 -8 -14 -17 -3 -10 -22 -40 -41 -68 -43 -61 -44 -90 -5
-143 57 -79 103 -83 178 -16 28 26 65 67 82 93 48 72 140 171 159 171 9 0 32
-16 51 -35 31 -32 32 -37 21 -62 -13 -29 -46 -69 -128 -160 -29 -32 -53 -63
-53 -70 0 -12 -70 -73 -107 -92 -37 -19 -168 -14 -212 9 -89 45 -151 143 -151
236 0 50 37 140 69 168 11 11 21 23 21 28 0 5 16 25 35 45 19 20 35 41 35 48
0 6 12 22 26 36 14 13 32 36 40 52 18 34 62 37 104 5z m7747 -240 c12 -40 25
-84 28 -98 17 -68 66 -251 80 -300 30 -98 30 -102 -9 -142 -41 -43 -76 -49
-116 -21 -14 10 -43 27 -65 38 -22 11 -71 39 -110 61 -38 23 -119 70 -180 104
-60 34 -114 65 -119 70 -20 20 60 90 103 90 15 0 67 -27 119 -60 51 -33 95
-60 99 -60 11 0 108 -64 116 -77 4 -7 13 -13 19 -13 14 0 5 54 -22 120 -12 30
-26 71 -32 90 -5 19 -16 55 -24 80 -8 25 -17 66 -20 91 -6 45 -5 47 32 73 64
43 76 37 101 -46z m-7220 -184 c24 -15 39 -56 29 -76 -9 -16 -24 -42 -59 -95
-32 -50 -34 -69 -9 -77 10 -4 49 -26 87 -51 38 -25 76 -44 85 -43 8 2 22 17
30 33 33 63 92 135 112 135 11 0 33 -13 49 -30 35 -34 33 -47 -12 -123 -16
-26 -29 -51 -29 -56 0 -5 -6 -14 -14 -20 -8 -7 -27 -36 -41 -64 -15 -29 -33
-59 -41 -68 -8 -8 -14 -19 -14 -23 0 -5 -13 -25 -29 -45 -79 -101 -61 -121 39
-41 117 92 128 100 138 100 6 0 12 4 14 9 4 10 162 126 215 158 l37 21 45 -23
c70 -36 74 -48 56 -169 -19 -133 -37 -345 -30 -367 3 -10 1 -20 -5 -24 -5 -3
-10 -21 -10 -39 0 -49 -22 -63 -65 -43 -46 22 -69 58 -62 99 6 41 -5 62 -40
81 -16 8 -60 33 -100 56 -40 22 -79 41 -87 41 -8 0 -28 -11 -44 -25 -17 -14
-40 -25 -52 -25 -22 0 -68 28 -102 62 -10 10 -23 18 -29 18 -22 0 -80 33 -89
51 -10 18 1 46 59 142 13 20 21 43 18 51 -5 13 -91 76 -105 76 -4 0 -18 9 -32
20 -38 30 -67 26 -75 -9 -3 -16 -13 -35 -21 -42 -8 -6 -14 -15 -14 -20 0 -20
-55 -69 -77 -69 -12 0 -23 4 -23 9 0 5 -9 11 -20 14 -11 3 -25 17 -31 31 -10
22 -9 30 13 58 13 18 46 71 73 118 26 47 55 93 63 103 9 9 20 26 26 36 104
184 107 187 173 145z m6721 -179 c34 -25 66 -45 72 -45 5 0 10 -4 10 -9 0 -5
12 -14 28 -20 15 -6 46 -26 69 -44 77 -59 138 -102 153 -107 30 -11 80 -45 85
-60 9 -22 -58 -80 -93 -80 -15 0 -44 11 -64 25 l-37 25 -68 -47 c-37 -25 -86
-56 -108 -67 -39 -21 -40 -23 -41 -76 0 -30 -1 -61 -2 -67 -3 -18 -81 -56
-104 -50 -13 4 -22 -1 -28 -17 -9 -25 -65 -56 -99 -56 -16 0 -29 18 -60 84
-22 46 -45 87 -51 91 -6 4 -19 0 -28 -8 -9 -9 -37 -23 -62 -33 -25 -9 -52 -22
-60 -29 -8 -7 -23 -15 -32 -18 -25 -9 -23 -23 17 -100 19 -38 35 -79 35 -92 0
-31 -35 -55 -82 -55 -36 0 -39 3 -63 53 -13 28 -30 63 -38 77 -26 44 -155 314
-162 338 -10 36 28 72 76 72 38 0 38 -1 79 -84 23 -46 49 -87 58 -91 9 -3 28
3 44 15 15 11 36 20 47 20 11 0 23 5 27 11 3 6 22 17 40 25 39 17 42 34 15 88
-11 20 -24 49 -30 64 -6 15 -16 34 -23 43 -9 14 -8 22 4 40 20 32 84 55 103
39 16 -13 225 -430 225 -449 0 -6 7 -11 16 -11 10 0 14 6 10 18 -2 9 -7 42
-11 72 -3 30 -10 82 -15 115 -27 163 -50 328 -50 355 0 24 9 36 42 60 56 41
83 38 156 -15z m-5884 -310 c15 -8 32 -13 36 -10 14 9 17 -44 13 -240 -3 -107
-1 -195 4 -195 5 0 26 19 47 43 21 23 83 88 138 144 112 114 118 116 203 68
22 -12 69 -28 105 -35 36 -7 79 -19 95 -26 41 -18 154 -54 172 -54 7 0 25 -7
38 -16 32 -21 35 -84 5 -114 -11 -11 -23 -20 -28 -20 -4 0 -60 18 -126 40 -65
22 -124 40 -132 40 -11 0 -44 -52 -44 -71 0 -8 81 -49 97 -49 26 0 159 -50
167 -62 6 -11 5 -28 -5 -53 -18 -48 -40 -63 -71 -48 -13 6 -34 14 -48 16 -14
3 -56 17 -95 31 -38 14 -75 26 -82 26 -12 0 -36 -67 -28 -80 3 -4 58 -25 122
-46 65 -21 127 -46 137 -55 17 -16 18 -22 6 -63 l-13 -46 -46 0 c-26 0 -51 4
-57 9 -5 4 -31 14 -59 21 -51 13 -173 58 -233 86 -25 12 -32 20 -27 32 4 9 14
41 22 71 8 30 22 73 32 95 10 23 28 75 40 116 13 41 31 98 42 127 10 29 14 55
9 58 -9 5 -60 -50 -60 -66 0 -5 -6 -9 -13 -9 -7 0 -30 -18 -52 -41 -22 -22
-62 -62 -89 -87 -26 -26 -56 -56 -65 -66 -26 -32 -84 -86 -108 -103 -27 -18
-71 -11 -108 18 l-25 20 0 293 c0 300 2 316 40 316 8 0 28 -7 44 -15z m4930
-134 c9 -10 19 -34 22 -53 5 -30 2 -38 -21 -56 -15 -12 -35 -22 -44 -22 -9 0
-56 -15 -106 -34 l-90 -33 3 -34 c1 -19 9 -40 16 -47 13 -14 15 -13 171 50 74
30 98 32 117 11 22 -25 30 -75 15 -93 -12 -15 -100 -52 -204 -85 -60 -19 -67
-38 -30 -79 l22 -25 70 28 c136 55 174 65 198 52 44 -23 53 -121 12 -121 -7 0
-26 -6 -42 -14 -15 -8 -57 -24 -93 -34 -36 -11 -96 -32 -135 -46 -38 -14 -76
-26 -84 -26 -22 0 -51 31 -51 55 0 11 -4 25 -8 31 -5 5 -19 41 -31 79 -21 67
-39 116 -66 180 -7 17 -18 49 -24 73 -13 46 -28 55 -36 20 -2 -13 -9 -113 -15
-223 -9 -178 -22 -300 -34 -313 -3 -2 -23 -6 -45 -9 -37 -5 -45 -2 -75 28 -18
19 -54 66 -81 104 -66 96 -93 117 -92 73 1 -70 -18 -260 -27 -272 -14 -18
-104 -28 -116 -12 -33 41 -110 148 -110 153 0 4 -7 13 -15 22 -24 26 -85 110
-85 119 0 4 -27 41 -60 82 -33 41 -60 78 -60 81 0 4 8 16 18 28 12 15 33 23
67 27 l50 5 44 -68 c25 -37 56 -85 70 -106 14 -21 38 -57 52 -80 14 -23 29
-42 34 -42 6 0 11 45 12 100 4 188 12 239 39 268 25 28 40 32 60 19 12 -8 93
-122 152 -214 21 -32 39 -57 42 -58 24 0 30 27 36 166 8 172 15 188 90 200 23
3 51 15 60 25 9 10 25 19 34 19 9 0 43 11 76 24 32 13 76 27 96 31 21 4 42 13
49 21 6 8 21 14 33 14 11 0 32 7 46 14 35 20 54 19 74 -3z m-3787 -289 c7 -9
34 -60 59 -112 25 -52 49 -97 52 -100 7 -5 21 -33 41 -82 6 -16 14 -28 19 -28
4 0 16 37 25 83 43 204 42 203 108 190 43 -8 44 -9 47 -52 2 -25 -4 -74 -12
-110 -9 -36 -20 -93 -26 -126 -5 -33 -14 -78 -20 -100 -5 -22 -16 -71 -24
-108 -16 -78 -17 -79 -53 -83 -37 -4 -76 34 -98 94 -10 26 -29 71 -44 100
-104 211 -102 207 -114 142 -23 -122 -51 -237 -59 -247 -13 -16 -72 -17 -99
-3 -11 6 -19 21 -19 36 0 28 40 239 70 369 10 44 21 97 24 117 6 30 12 38 34
41 39 6 74 -2 89 -21z m538 -93 c303 -36 301 -35 275 -111 l-15 -43 -60 2
c-33 1 -98 7 -143 14 -95 14 -104 10 -100 -51 3 -29 7 -35 28 -37 14 -2 54 -7
90 -12 36 -6 86 -13 113 -16 l47 -6 0 -54 c0 -30 -5 -57 -12 -61 -14 -9 -108
-5 -219 10 -62 9 -63 8 -73 -45 l-6 -35 112 -12 c167 -18 166 -18 183 -32 18
-15 12 -85 -9 -108 -20 -21 -411 24 -428 50 -9 13 -7 37 11 133 6 28 10 76 10
107 1 31 5 68 11 83 5 14 14 70 19 125 5 55 12 104 16 110 4 6 19 9 33 6 15
-3 68 -11 117 -17z m1587 -27 c51 -15 118 -61 118 -80 -1 -12 -34 -49 -55 -60
-16 -8 -35 -5 -80 10 -68 24 -118 20 -153 -13 -53 -48 -8 -78 131 -86 142 -8
187 -36 211 -129 11 -43 10 -56 -6 -103 -22 -66 -45 -89 -117 -118 -71 -29
-220 -35 -267 -10 -40 21 -96 84 -92 105 2 9 18 26 36 38 37 25 62 22 108 -13
24 -18 44 -23 87 -23 49 0 61 4 92 31 41 36 43 49 14 75 -17 15 -42 20 -123
25 -79 4 -112 11 -149 29 -26 13 -47 28 -47 32 0 5 -4 6 -10 3 -5 -3 -10 -29
-10 -57 0 -57 -25 -120 -73 -181 -33 -42 -82 -71 -148 -86 -61 -15 -249 -20
-275 -9 -26 12 -31 70 -30 308 l1 155 -160 0 -160 -1 0 -44 c0 -39 3 -45 22
-45 11 0 25 -3 29 -7 4 -5 56 -8 115 -8 118 0 119 0 119 -68 0 -62 -2 -63
-156 -60 l-139 3 0 -40 0 -40 55 -8 c30 -4 96 -11 145 -15 l90 -7 -1 -53 c-3
-85 1 -84 -179 -62 -44 6 -116 10 -160 10 -70 0 -82 3 -93 20 -7 12 -10 35 -7
53 3 18 7 95 9 172 3 77 7 147 10 155 2 8 7 46 11 85 6 77 27 120 53 110 9 -3
79 -10 157 -16 77 -5 161 -14 186 -19 25 -5 54 -7 65 -5 36 9 259 11 307 4 54
-9 124 -58 154 -109 9 -17 20 -30 24 -30 4 0 10 18 14 40 9 52 67 114 121 129
130 36 131 36 206 13z m362 -441 c37 -33 3 -181 -42 -181 -26 0 -42 20 -42 52
0 17 -7 31 -20 38 -15 8 -20 21 -20 50 0 32 5 42 26 53 31 16 71 11 98 -12z"/>
<path d="M18360 6982 c0 -5 15 -32 33 -60 17 -27 37 -58 44 -68 11 -18 13 -18
23 -2 6 9 16 23 23 30 13 14 47 65 47 71 0 6 -71 25 -122 32 -30 5 -48 4 -48
-3z"/>
<path d="M7655 4600 c-41 -20 -85 -53 -85 -65 0 -4 -9 -18 -20 -32 -32 -41
-27 -100 14 -157 18 -26 46 -54 61 -62 58 -30 147 -11 196 43 40 42 69 106 63
138 -8 42 -37 97 -59 109 -11 6 -31 19 -44 29 -31 22 -76 21 -126 -3z"/>
<path d="M9216 3415 c-3 -8 -17 -20 -31 -25 -14 -5 -25 -13 -25 -18 0 -5 -11
-14 -25 -20 -14 -6 -25 -18 -25 -25 0 -14 91 -67 115 -67 12 0 25 69 25 138 0
34 -23 45 -34 17z"/>
<path d="M15374 3613 c3 -27 8 -59 10 -73 2 -14 4 -31 5 -37 1 -16 27 -17 44
-2 7 5 27 19 45 30 19 11 32 24 30 29 -4 12 -120 100 -132 100 -4 0 -5 -21 -2
-47z"/>
<path d="M12095 2770 c-4 -6 -4 -23 -1 -38 3 -15 7 -76 7 -137 1 -60 6 -118
11 -127 7 -14 21 -18 71 -18 53 1 68 5 102 31 52 39 64 63 65 125 0 116 -59
174 -179 174 -38 0 -73 -5 -76 -10z"/>
<path d="M8636 10482 c-12 -20 -16 -252 -7 -362 12 -144 31 -239 61 -319 45
-115 94 -222 107 -233 8 -6 23 -28 34 -47 76 -138 280 -330 499 -469 36 -23
77 -50 92 -62 14 -11 31 -20 36 -20 6 0 32 -11 59 -24 26 -13 71 -34 98 -46
28 -12 64 -28 80 -36 17 -7 48 -20 70 -28 22 -7 78 -28 125 -46 204 -75 560
-166 805 -205 189 -30 175 -37 175 94 0 158 6 160 148 52 70 -53 91 -68 157
-116 60 -44 130 -100 133 -107 2 -5 8 -8 13 -8 5 0 39 -22 74 -50 35 -27 67
-50 71 -50 6 0 25 -14 94 -69 14 -11 50 -39 80 -63 30 -24 84 -64 120 -88 89
-62 202 -146 223 -166 34 -34 18 -65 -38 -78 -16 -4 -77 -25 -135 -47 -125
-48 -323 -123 -400 -151 -56 -21 -98 -38 -158 -64 -18 -8 -41 -14 -50 -14 -10
0 -22 -4 -28 -8 -5 -5 -43 -21 -84 -36 -41 -15 -88 -34 -105 -41 -53 -23 -97
-28 -106 -14 -5 8 -9 63 -9 122 0 60 -4 116 -10 126 -9 18 -31 24 -210 52
-128 21 -494 100 -605 131 -106 29 -178 50 -200 58 -11 4 -74 24 -140 45 -66
20 -134 43 -152 50 -17 8 -66 26 -110 41 -155 53 -556 241 -787 370 -44 24
-81 44 -83 44 -8 0 -1 -95 13 -175 19 -106 48 -191 103 -306 65 -136 82 -163
146 -233 19 -22 35 -42 35 -46 0 -8 143 -149 205 -203 43 -37 170 -129 195
-140 8 -4 56 -32 105 -63 112 -68 234 -127 410 -199 50 -20 105 -43 123 -51
18 -8 41 -14 50 -14 10 0 23 -5 29 -11 5 -5 55 -24 109 -40 54 -17 128 -40
164 -50 77 -24 268 -76 325 -89 22 -5 90 -20 150 -34 271 -63 752 -149 1045
-187 41 -5 102 -14 135 -20 33 -6 103 -14 155 -19 88 -8 290 -29 455 -49 39
-4 75 -6 81 -4 6 2 14 30 17 61 3 31 6 602 7 1268 1 1074 0 1212 -14 1223 -14
12 -107 35 -186 47 -19 3 -44 9 -55 14 -11 5 -65 18 -120 30 -55 11 -129 29
-165 40 -36 10 -105 28 -155 38 -118 26 -408 99 -465 117 -25 8 -112 31 -195
52 -82 20 -179 44 -215 54 -36 10 -85 23 -110 30 -25 6 -79 21 -120 34 -41 13
-97 29 -125 36 -27 7 -54 15 -60 19 -5 4 -29 10 -51 14 -23 3 -97 23 -165 45
-68 21 -160 48 -204 60 -44 12 -93 29 -109 37 -16 8 -35 14 -42 14 -14 0 -159
45 -309 97 -55 19 -158 54 -229 78 -130 44 -177 63 -229 90 -16 8 -35 15 -43
15 -8 0 -22 4 -32 10 -9 5 -35 17 -57 26 -39 17 -111 50 -248 113 -37 18 -91
47 -120 65 -85 54 -166 96 -171 88z"/>
<path d="M14500 7920 c0 -5 -9 -10 -20 -10 -24 0 -44 -42 -34 -72 3 -10 17
-30 31 -44 14 -14 19 -25 12 -24 -31 5 -39 -1 -39 -28 0 -16 9 -39 19 -51 l20
-23 3 38 c2 21 9 39 16 42 19 6 15 -52 -7 -91 -16 -28 -17 -42 -10 -82 5 -27
7 -57 4 -66 -3 -9 1 -34 10 -56 22 -54 35 -212 18 -206 -7 3 -13 13 -13 22 0
29 -11 32 -38 11 -13 -11 -30 -20 -36 -20 -6 0 -22 -9 -36 -20 -24 -18 -24
-20 -7 -37 17 -17 19 -17 59 6 39 22 41 23 59 5 10 -11 26 -48 35 -83 15 -59
15 -65 0 -73 -9 -5 -16 -17 -16 -27 0 -21 -46 -71 -66 -71 -7 0 -17 -6 -21
-14 -4 -8 -25 -21 -45 -29 -21 -9 -38 -20 -38 -26 0 -5 -19 -20 -43 -34 -82
-49 -171 -157 -148 -180 16 -16 83 2 88 24 4 13 14 19 33 19 24 0 77 32 121
75 9 8 23 15 32 15 15 0 22 11 18 33 -1 4 12 10 28 13 16 4 32 12 35 20 3 7
24 22 48 33 71 31 77 32 89 10 9 -17 18 -20 55 -17 24 2 44 0 44 -4 0 -19 2
-24 16 -40 10 -10 14 -29 12 -50 -4 -31 -7 -33 -36 -30 -26 3 -32 0 -32 -16 0
-30 24 -46 49 -32 12 6 21 15 21 20 0 6 5 10 10 10 6 0 24 10 40 21 23 18 36
21 72 15 23 -4 52 -15 63 -25 11 -10 37 -24 57 -30 20 -7 42 -19 48 -27 19
-22 39 -17 46 12 5 18 9 22 15 13 4 -7 3 -21 -2 -31 -9 -16 0 -23 68 -54 43
-20 93 -38 112 -41 21 -4 35 -13 39 -25 5 -19 17 -24 26 -9 3 4 17 6 31 3 41
-7 28 30 -15 43 -34 11 -69 37 -70 52 0 9 -15 10 -52 6 -37 -4 -50 -2 -43 5 6
6 21 12 35 14 l25 4 -25 11 c-14 6 -32 18 -39 27 -17 20 -41 21 -41 1 0 -8 -4
-15 -9 -15 -15 0 -23 18 -11 25 18 11 10 25 -24 39 -37 15 -136 111 -164 158
-22 38 -37 30 -37 -20 0 -54 -13 -54 -21 -1 -4 22 -13 43 -20 46 -21 8 -16 33
6 33 24 0 26 13 4 34 -8 9 -14 24 -12 33 1 10 -1 23 -5 30 -5 8 3 19 20 30 50
32 56 45 29 69 -16 14 -21 26 -16 34 7 11 11 11 24 1 9 -8 16 -20 16 -27 0
-38 83 16 94 62 5 18 11 24 24 20 12 -4 40 13 86 51 38 32 84 68 102 81 19 12
34 27 34 33 0 6 9 8 20 4 10 -3 28 -2 38 4 18 10 56 -7 73 -32 3 -5 9 -8 13
-8 3 1 23 -6 44 -15 50 -22 107 -24 107 -4 0 8 -9 16 -20 18 -24 5 -89 65
-116 109 -19 30 -19 34 -5 55 23 32 20 39 -11 27 -15 -5 -36 -8 -48 -5 -23 6
-45 48 -45 88 0 17 -7 31 -19 38 -16 8 -19 17 -14 44 8 48 -14 56 -32 12 -19
-44 -19 -116 -1 -181 8 -27 15 -44 15 -37 2 24 20 12 23 -15 2 -19 8 -27 18
-24 17 4 23 4 68 -5 38 -7 44 -34 8 -34 -14 0 -28 5 -31 10 -4 6 -21 8 -40 4
-26 -5 -36 -2 -48 16 -14 21 -16 21 -25 3 -5 -10 -7 -24 -5 -30 3 -7 0 -13 -6
-13 -6 0 -11 7 -11 15 0 22 -15 18 -36 -10 -10 -13 -37 -32 -59 -41 -45 -18
-87 -53 -79 -65 9 -16 32 -10 62 16 17 14 33 25 36 25 13 0 5 -31 -9 -36 -8
-4 -15 -12 -15 -19 0 -15 -53 -28 -58 -14 -2 5 -10 9 -17 9 -7 0 -15 5 -17 11
-2 5 -11 7 -20 4 -9 -4 -14 -13 -11 -21 3 -10 -2 -14 -20 -14 -13 0 -30 -7
-37 -15 -7 -8 -18 -15 -25 -15 -8 0 -27 -11 -43 -25 -16 -13 -32 -22 -34 -19
-3 3 -15 -7 -27 -22 -17 -22 -23 -24 -36 -14 -12 10 -16 9 -21 -4 -5 -12 -16
-15 -50 -11 -24 2 -44 0 -44 -6 0 -5 -7 -9 -15 -9 -18 0 -19 -23 -4 -52 12
-23 2 -39 -12 -18 -8 13 -10 13 -19 0 -7 -11 -10 -2 -10 33 0 40 3 47 20 47
22 0 26 10 8 28 -8 8 -8 15 2 27 12 14 15 14 32 -5 19 -21 43 -26 52 -12 3 5
-9 24 -27 43 -17 19 -36 47 -42 63 -11 32 -35 47 -35 22 0 -9 -5 -16 -10 -16
-7 0 -7 6 0 20 11 20 -2 74 -36 158 -8 18 -14 42 -14 53 0 11 -9 38 -21 60
-12 24 -21 61 -21 92 -1 29 -7 61 -15 72 -7 11 -13 39 -13 62 0 24 -4 43 -10
43 -5 0 -10 -4 -10 -10z m848 -267 c-4 -34 -28 -43 -28 -10 0 25 7 37 22 37 5
0 8 -12 6 -27z m-808 -28 c0 -8 -4 -15 -10 -15 -5 0 -7 7 -4 15 4 8 8 15 10
15 2 0 4 -7 4 -15z m850 -45 c0 -5 -9 -10 -20 -10 -11 0 -20 5 -20 10 0 6 9
10 20 10 11 0 20 -4 20 -10z m-806 -37 c7 -32 -8 -47 -33 -34 -25 14 -28 46
-3 60 19 11 31 3 36 -26z m906 -78 c0 -8 -7 -15 -15 -15 -9 0 -12 6 -9 15 4 8
10 15 15 15 5 0 9 -7 9 -15z m-902 -42 c-3 -30 -25 -42 -34 -19 -6 17 11 46
28 46 5 0 8 -12 6 -27z m53 -106 c-1 -4 -1 -14 -1 -24 0 -9 -3 -13 -7 -9 -4 3
-12 -4 -19 -16 -12 -22 -12 -22 -11 7 2 31 16 56 30 52 5 -1 8 -6 8 -10z m389
-17 c0 -5 -4 -10 -10 -10 -5 0 -10 5 -10 10 0 6 5 10 10 10 6 0 10 -4 10 -10z
m-244 -121 c-3 -17 -6 -42 -6 -55 0 -40 -20 -27 -21 14 l-2 37 -6 -35 c-7 -34
-7 -33 -12 18 -4 52 -4 52 25 52 27 0 28 -2 22 -31z m-68 -69 c-3 -60 -18 -86
-18 -31 0 32 11 91 16 91 2 0 3 -27 2 -60z m132 11 c5 -11 10 -32 10 -48 0
-28 -1 -27 -24 12 -23 38 -25 55 -6 55 5 0 14 -9 20 -19z m-220 -46 c0 -14 -4
-25 -10 -25 -5 0 -10 11 -10 25 0 14 5 25 10 25 6 0 10 -11 10 -25z m176 -52
c-12 -13 -25 13 -19 37 l7 24 9 -27 c5 -16 6 -31 3 -34z m44 -38 c0 -9 -9 -15
-21 -15 -18 0 -19 2 -9 15 7 8 16 15 21 15 5 0 9 -7 9 -15z m-252 -33 c3 -10
-4 -13 -24 -10 -15 2 -29 9 -32 16 -3 10 4 13 24 10 15 -2 29 -9 32 -16z m-78
-12 c0 -5 -4 -10 -10 -10 -5 0 -10 5 -10 10 0 6 5 10 10 10 6 0 10 -4 10 -10z
m380 0 c0 -5 -5 -10 -11 -10 -5 0 -7 5 -4 10 3 6 8 10 11 10 2 0 4 -4 4 -10z
m-410 -23 c0 -12 -40 -47 -53 -47 -32 0 -26 18 11 33 43 18 42 18 42 14z m-97
-70 c2 -6 -13 -23 -34 -37 -22 -13 -39 -29 -39 -35 0 -5 -9 -16 -19 -22 -39
-25 -28 12 18 59 47 48 65 57 74 35z m547 -6 c0 -5 -7 -14 -15 -21 -12 -10
-15 -10 -15 2 0 8 3 18 7 21 9 10 23 9 23 -2z m112 -31 c26 -24 17 -38 -15
-22 -12 6 -34 13 -49 16 -40 9 -35 26 7 26 22 0 44 -8 57 -20z m-808 -80 c-22
-9 -29 -6 -20 9 4 6 14 7 23 4 15 -6 14 -7 -3 -13z m966 -26 c0 -8 -5 -12 -10
-9 -6 4 -8 11 -5 16 9 14 15 11 15 -7z"/>
<path d="M8849 6413 c-1 -4 0 -93 0 -198 1 -104 -2 -203 -7 -220 -13 -44 -7
-50 46 -50 l47 1 5 223 c3 123 3 227 0 232 -3 4 -14 8 -25 7 -11 -1 -30 2 -42
6 -13 4 -23 4 -24 -1z"/>
<path d="M9470 6410 c-8 -5 -27 -10 -42 -10 -23 0 -29 -6 -39 -42 -6 -24 -15
-51 -21 -62 -6 -12 -6 -22 1 -29 7 -7 12 -5 17 6 3 9 12 17 20 17 11 0 13 -30
11 -170 l-3 -170 48 0 48 0 1 208 c1 114 2 219 3 235 2 29 -15 36 -44 17z"/>
<path d="M9074 6395 c-13 -32 6 -103 31 -119 14 -9 29 -33 36 -58 6 -24 15
-52 19 -63 5 -11 11 -29 14 -40 17 -67 54 -150 65 -150 13 0 71 124 71 150 0
6 -13 22 -30 37 -17 15 -30 36 -30 50 0 12 -7 36 -15 52 -8 15 -15 38 -15 50
0 11 -10 39 -23 61 -21 37 -26 40 -70 43 -36 2 -49 -1 -53 -13z"/>
<path d="M9646 6402 c-2 -4 -5 -107 -5 -229 l-1 -221 50 -4 c27 -1 54 -2 58 0
5 1 6 43 4 92 -3 63 -1 95 8 105 10 12 10 21 0 45 -9 21 -11 60 -8 120 6 99 7
98 -64 99 -21 0 -39 -3 -42 -7z"/>
<path d="M9830 6399 c0 -6 9 -22 20 -36 14 -18 20 -41 20 -74 0 -63 -16 -96
-54 -109 -24 -9 -28 -13 -16 -20 37 -21 125 24 153 77 40 79 1 152 -92 168
-19 3 -31 1 -31 -6z"/>
<path d="M10155 6388 c-37 -12 -110 -107 -126 -163 -14 -51 1 -145 32 -189 11
-17 44 -48 72 -68 48 -36 55 -38 125 -38 85 0 125 15 181 69 67 65 86 148 56
247 -19 66 -110 154 -158 154 l-32 -1 32 -27 c38 -32 54 -89 55 -197 1 -108
-11 -155 -48 -192 -27 -28 -39 -33 -81 -33 -43 0 -53 4 -84 36 l-34 35 -4 130
c-3 141 4 174 47 222 28 29 20 32 -33 15z"/>
<path d="M10609 6398 c0 -2 -2 -95 -3 -208 -2 -113 -5 -216 -7 -230 -4 -24 -1
-25 51 -27 71 -4 87 6 68 38 -11 17 -14 46 -11 104 5 96 5 98 2 205 -1 47 0
92 2 100 3 12 -8 16 -48 18 -29 2 -53 2 -54 0z"/>
<path d="M10810 6390 c0 -5 4 -10 8 -10 26 0 52 -40 54 -83 3 -55 -15 -92 -53
-108 -34 -14 -36 -20 -9 -37 11 -7 29 -33 41 -60 12 -26 33 -73 48 -104 l26
-58 58 0 c64 0 68 6 33 53 -13 18 -34 54 -47 81 -13 27 -34 55 -46 64 -31 20
-29 33 12 82 19 22 37 56 41 75 11 62 -51 115 -138 115 -16 0 -28 -4 -28 -10z"/>
<path d="M11066 6391 c-6 -9 2 -41 9 -41 7 0 75 42 75 46 0 8 -79 4 -84 -5z"/>
<path d="M11223 6168 l4 -233 57 0 c31 0 56 3 56 8 0 4 0 108 0 232 l0 225
-60 0 -60 0 3 -232z"/>
<path d="M11400 6390 c0 -5 7 -10 16 -10 9 0 32 -9 50 -21 30 -18 35 -19 40
-5 10 27 -15 46 -62 46 -24 0 -44 -4 -44 -10z"/>
<path d="M12177 6393 c-3 -5 -7 -110 -8 -233 l-2 -225 149 -3 c171 -3 194 0
194 28 0 24 3 24 -50 5 -64 -23 -113 -19 -148 10 -29 24 -30 26 -25 102 5 103
6 105 2 203 -2 47 -2 92 1 100 4 12 -7 16 -52 18 -31 2 -59 -1 -61 -5z"/>
<path d="M12410 6393 c0 -10 52 -35 58 -28 2 2 2 11 -1 20 -6 15 -57 22 -57 8z"/>
<path d="M12608 6393 c-21 -5 -23 -19 -5 -30 8 -4 22 -24 33 -43 10 -19 24
-42 30 -50 20 -28 52 -95 58 -122 4 -16 13 -28 20 -28 21 0 79 -99 85 -145 l6
-40 78 -3 c83 -3 97 7 57 43 -11 10 -20 22 -20 27 0 5 -17 35 -39 66 -52 77
-71 116 -71 145 0 17 -7 27 -22 31 -23 6 -69 85 -68 118 0 9 -4 19 -8 22 -13
8 -115 15 -134 9z"/>
<path d="M12929 6393 c-10 -2 -18 -17 -21 -38 l-4 -33 32 26 c48 40 44 59 -7
45z"/>
<path d="M13112 6391 l-23 -6 -2 -228 -2 -227 57 0 c60 0 69 5 59 32 -3 10 -3
57 0 105 3 49 3 131 -1 183 -5 77 -4 98 8 113 21 24 49 21 77 -8 21 -20 25
-34 25 -79 0 -69 -14 -106 -39 -106 -11 0 -22 -4 -25 -9 -10 -16 26 -22 63
-10 20 7 41 13 46 14 6 2 24 27 39 56 l29 53 -27 52 c-16 30 -37 56 -50 60
-27 9 -203 12 -234 5z"/>
<path d="M13605 6384 c-43 -22 -82 -62 -112 -114 -20 -36 -25 -58 -24 -110 1
-82 26 -134 92 -190 42 -35 54 -40 96 -39 l48 0 -35 15 c-22 9 -47 31 -63 56
-25 40 -27 49 -27 159 0 106 2 121 25 162 17 29 36 49 55 56 17 5 30 12 30 15
0 12 -56 5 -85 -10z"/>
<path d="M13746 6392 c-3 -5 5 -13 18 -16 39 -10 68 -82 74 -186 7 -123 -9
-181 -61 -225 l-41 -35 38 0 c30 0 48 9 91 45 45 39 56 56 75 114 l23 68 -22
71 c-20 63 -29 78 -75 117 -52 44 -108 66 -120 47z"/>
<path d="M14050 6396 c0 0 -2 -106 -3 -234 l-2 -232 56 0 56 0 -5 100 c-5 111
2 130 49 130 43 0 82 -44 120 -135 18 -44 38 -83 44 -87 15 -11 105 -9 105 2
0 9 -36 83 -62 130 -5 8 -11 23 -14 32 -3 9 -12 19 -19 22 -8 3 -18 13 -24 24
-8 16 -3 26 29 61 54 58 56 105 5 150 -20 17 -41 32 -48 32 -17 2 -287 7 -287
5z m239 -45 c26 -24 31 -37 31 -74 0 -75 -51 -110 -140 -97 -23 3 -25 7 -31
88 -7 94 4 112 66 112 33 0 50 -6 74 -29z"/>
<path d="M14521 6387 c-11 -11 -16 -57 -6 -57 3 0 18 9 34 21 38 28 103 36
120 15 9 -11 12 -61 12 -193 -1 -98 -4 -193 -7 -211 l-6 -33 63 3 c52 2 63 6
59 18 -3 8 -6 104 -8 212 -3 194 -3 197 19 208 34 19 98 6 127 -26 24 -25 26
-26 33 -8 9 27 -6 52 -38 58 -52 10 -391 4 -402 -7z"/>
<path d="M12372 6186 l-24 -13 25 -16 c27 -17 37 -14 37 14 0 25 -11 29 -38
15z"/>
<path d="M11734 6108 c-3 -5 -3 -19 0 -32 5 -20 11 -22 80 -21 82 0 105 11 88
42 -9 15 -24 18 -87 19 -42 0 -78 -3 -81 -8z"/>
<path d="M12655 6040 c-3 -5 -1 -10 4 -10 6 0 11 5 11 10 0 6 -2 10 -4 10 -3
0 -8 -4 -11 -10z"/>
<path d="M9064 5976 c-4 -10 -2 -22 4 -28 8 -8 13 -7 18 6 4 10 2 22 -4 28 -8
8 -13 7 -18 -6z"/>
<path d="M12598 5966 c-26 -19 -22 -36 7 -36 20 0 25 5 25 25 0 28 -7 30 -32
11z"/>
<path d="M11172 5569 c5 -48 4 -52 -23 -68 -36 -20 -36 -28 -1 -44 15 -6 30
-16 34 -22 10 -13 298 -19 298 -5 0 11 -23 17 -95 23 -47 5 -53 9 -126 86 -42
45 -80 81 -84 81 -4 0 -5 -23 -3 -51z"/>
<path d="M11030 5393 c-31 -11 -245 -118 -250 -125 -3 -4 -17 -12 -30 -18 -39
-16 -176 -94 -194 -109 -25 -21 -10 -26 26 -9 18 8 49 22 68 30 19 9 82 38
140 66 58 28 149 71 203 97 59 27 97 51 94 58 -4 13 -34 19 -57 10z"/>
<path d="M11365 5364 c-125 -17 -253 -59 -415 -136 -25 -12 -55 -26 -67 -31
-13 -6 -23 -14 -23 -19 0 -13 85 13 142 43 10 5 25 9 35 9 9 0 24 7 34 16 10
9 32 20 51 24 18 5 53 14 78 21 25 6 61 16 81 21 36 10 287 5 417 -8 36 -4 74
-2 90 4 15 6 39 13 55 16 57 13 23 23 -93 30 -202 10 -354 14 -385 10z"/>
<path d="M11108 5197 c-31 -13 -60 -26 -64 -30 -4 -4 -17 -7 -28 -7 -12 0 -34
-7 -50 -15 -15 -8 -36 -15 -45 -15 -9 0 -27 -9 -41 -20 -14 -11 -36 -20 -49
-20 -17 0 -22 -3 -15 -10 6 -6 39 1 94 21 47 17 128 46 180 65 52 19 99 39
104 44 17 17 -25 10 -86 -13z"/>
<path d="M10805 5160 c-3 -5 3 -10 14 -10 11 0 23 5 26 10 3 6 -3 10 -14 10
-11 0 -23 -4 -26 -10z"/>
<path d="M10750 5141 c-51 -27 -61 -31 -74 -31 -7 0 -24 -9 -37 -20 -19 -15
-20 -19 -8 -20 24 0 149 59 149 70 0 12 -9 12 -30 1z"/>
<path d="M10557 5063 c-15 -14 -6 -24 20 -21 34 4 43 28 11 28 -14 0 -28 -3
-31 -7z"/>
<path d="M10730 5055 c-11 -13 -9 -15 13 -15 13 0 30 7 37 15 11 13 9 15 -13
15 -13 0 -30 -7 -37 -15z"/>
<path d="M10630 5020 c-14 -11 -37 -20 -52 -20 -16 0 -28 -4 -28 -10 0 -16 33
-12 78 10 22 11 49 20 59 21 16 0 16 1 -2 9 -28 12 -27 12 -55 -10z"/>
<path d="M10470 4960 c0 -5 9 -10 19 -10 11 0 23 5 26 10 4 6 -5 10 -19 10
-14 0 -26 -4 -26 -10z"/>
</g>
</svg>
